<?xml version="1.0" standalone="no"?>
<!DOCTYPE svg PUBLIC "-//W3C//DTD SVG 20010904//EN"
 "http://www.w3.org/TR/2001/REC-SVG-20010904/DTD/svg10.dtd">
<svg version="1.0" xmlns="http://www.w3.org/2000/svg"
 width="300.000000pt" height="300.000000pt" viewBox="0 0 300.000000 300.000000"
 preserveAspectRatio="xMidYMid meet">
<metadata>
Created by potrace 1.10, written by Peter Selinger 2001-2011
</metadata>
<g transform="translate(0.000000,300.000000) scale(0.100000,-0.100000)"
fill="#ff0000" stroke="none">
<path d="M1888 2263 c-9 -2 -20 -13 -24 -25 -4 -14 -9 -17 -17 -9 -16 16 -106
14 -122 -2 -9 -9 -12 -30 -9 -59 3 -34 0 -49 -16 -66 -11 -11 -20 -34 -20 -49
l0 -27 -16 23 c-15 21 -22 23 -79 19 -43 -4 -67 -1 -80 8 -15 11 -70 14 -251
14 -213 0 -234 -2 -255 -19 l-24 -19 -2 -279 -2 -278 -33 -39 c-18 -22 -39
-48 -46 -58 -21 -29 -6 -76 31 -99 31 -18 54 -19 539 -18 l506 1 26 27 c40 41
40 66 2 109 -74 85 -74 84 -75 192 l-1 100 33 0 c54 0 67 23 67 121 0 53 -5
90 -12 97 -7 7 -38 12 -70 12 -57 0 -58 0 -58 29 l0 28 110 -1 c105 -2 111 -1
133 23 12 13 16 21 10 17 -10 -6 -13 16 -13 94 0 141 1 140 -118 139 -53 -1
-105 -3 -114 -6z m212 -133 l0 -110 -110 0 -110 0 0 110 0 110 110 0 110 0 0
-110z m-260 43 l0 -53 -55 0 -55 0 0 48 c0 27 2 51 4 53 2 2 27 4 55 4 l51 0
0 -52z m10 -158 l0 -75 -75 0 -75 0 1 75 1 75 74 0 74 0 0 -75z m-340 25 c0
-19 -8 -20 -222 -22 l-223 -3 0 -240 0 -240 385 0 385 0 3 83 3 83 31 -3 31
-3 -2 -95 c-1 -52 -3 -96 -5 -97 -1 -2 24 -31 56 -65 32 -35 58 -66 58 -69 0
-4 -9 -18 -21 -33 l-20 -26 -514 0 -514 0 -21 22 c-11 12 -20 26 -20 31 0 9
88 119 100 124 3 2 4 125 2 275 -1 150 0 278 2 285 4 10 59 13 256 13 243 0
250 -1 250 -20z m140 -45 l0 -55 -52 0 -53 0 2 52 c1 29 2 54 2 56 1 1 24 2
51 2 l50 0 0 -55z m-106 -66 c18 -9 22 -18 21 -45 -2 -36 -15 -61 -15 -30 0
28 -26 46 -67 46 -48 0 -63 -14 -63 -59 0 -30 -19 -85 -20 -57 0 5 -9 1 -20
-9 -27 -24 -28 -99 -2 -110 39 -17 77 -15 104 5 23 17 28 17 38 5 17 -21 82
-19 100 3 20 23 25 69 9 88 -14 16 -9 26 8 16 6 -4 13 -24 16 -45 7 -54 22
-67 77 -67 34 0 52 5 65 20 19 21 41 28 30 9 -4 -6 -8 -41 -9 -77 l-1 -67
-363 -3 -362 -2 -1 62 c0 35 -3 131 -5 214 -4 119 -2 153 9 162 9 8 85 13 218
14 l204 3 3 -33 c2 -23 10 -36 26 -43z m202 -9 c24 0 45 -3 47 -7 2 -5 2 -26
0 -49 -5 -39 -6 -40 -36 -36 -43 6 -56 18 -55 53 1 16 -2 32 -5 36 -4 3 -7
-17 -7 -46 0 -58 1 -57 -82 -64 -48 -5 -58 -3 -58 10 0 12 3 13 14 3 13 -10
15 -3 18 42 l3 53 53 3 c37 2 51 7 46 15 -5 8 -3 8 7 0 7 -7 32 -13 55 -13z
m254 -90 l0 -90 -90 0 -90 0 0 90 0 90 90 0 90 0 0 -90z m-480 -1 c0 -39 0
-39 -40 -39 l-40 0 0 43 0 43 40 -4 c39 -4 40 -5 40 -43z m260 -79 l0 -50 -50
0 -50 0 0 50 0 50 50 0 50 0 0 -50z m-310 -32 l0 -48 -45 0 -45 0 0 50 0 51
45 -2 45 -3 0 -48z m140 10 l0 -43 -45 0 -45 0 0 43 0 42 45 0 45 0 0 -42z"/>
<path d="M1300 1390 c-11 -20 -8 -20 155 -20 163 0 165 0 153 20 -12 18 -24
20 -155 20 -132 0 -143 -1 -153 -20z"/>
<path d="M1360 1340 c0 -6 38 -10 95 -10 57 0 95 4 95 10 0 6 -38 10 -95 10
-57 0 -95 -4 -95 -10z"/>
<path d="M862 1207 c-10 -11 -15 -73 -13 -164 1 -37 4 -43 26 -49 14 -3 32 -1
39 6 11 9 20 9 36 0 12 -7 34 -10 48 -7 13 3 38 1 54 -4 17 -4 40 -4 55 2 20
7 24 7 20 -5 -3 -7 0 -19 6 -25 9 -9 8 -14 -3 -21 -21 -14 -36 -12 -50 5 -17
20 -32 19 -63 -6 -20 -15 -31 -18 -45 -10 -13 7 -22 7 -30 -1 -9 -9 -18 -8
-36 2 -21 11 -28 11 -41 0 -19 -16 -21 -113 -2 -128 17 -14 492 -11 507 4 8 8
6 24 -7 59 -22 58 -44 75 -73 57 -16 -10 -24 -10 -40 0 -15 10 -24 10 -39 1
-30 -19 -33 -3 -4 31 33 39 78 59 103 46 24 -13 66 -13 90 0 14 8 25 7 40 -2
29 -18 54 1 58 43 3 31 33 68 55 69 4 0 7 -25 7 -55 0 -50 2 -55 25 -61 29 -7
69 21 61 43 -10 24 11 22 23 -3 6 -14 27 -32 46 -40 31 -13 39 -13 65 1 24 12
35 13 52 4 27 -14 75 -14 92 0 10 8 17 7 25 -3 10 -12 18 -13 37 -4 18 8 31 8
49 0 21 -10 27 -8 43 13 12 15 18 36 16 53 -2 22 2 32 20 41 13 7 31 29 40 49
17 34 16 36 -3 55 -24 24 -46 17 -68 -21 -15 -26 -19 -28 -44 -19 -15 6 -32
21 -38 34 -18 38 -71 24 -71 -19 0 -16 -5 -18 -35 -12 -25 4 -43 1 -61 -11
-22 -14 -28 -15 -48 -2 -21 14 -64 16 -84 3 -6 -3 -8 2 -5 14 10 37 -20 51
-98 48 -60 -3 -74 -6 -83 -23 -6 -11 -12 -22 -13 -24 -1 -2 -17 -5 -35 -7 -17
-2 -35 -9 -39 -15 -5 -8 -14 -7 -30 5 -29 20 -58 20 -87 1 -19 -14 -24 -14
-51 0 -32 16 -96 14 -114 -4 -6 -6 -18 -4 -33 6 -23 15 -49 14 -86 -1 -11 -5
-18 -1 -23 13 -13 42 -117 69 -143 38z m110 -34 c22 -20 23 -41 2 -64 -15 -17
-15 -21 5 -55 12 -20 20 -39 17 -41 -12 -12 -37 9 -53 42 -23 48 -43 46 -43
-5 0 -29 -4 -40 -15 -40 -12 0 -15 17 -15 90 l0 90 42 0 c24 0 49 -7 60 -17z
m708 2 c0 -10 -10 -15 -30 -15 l-30 0 0 -75 c0 -65 -2 -75 -18 -75 -15 0 -17
8 -14 75 l4 75 -31 0 c-21 0 -31 5 -31 15 0 12 15 15 75 15 60 0 75 -3 75 -15z
m304 -15 c-6 -29 -6 -30 26 -23 43 8 60 -14 60 -79 0 -42 -3 -48 -21 -48 -18
0 -20 5 -16 37 6 45 0 63 -23 63 -21 0 -33 -38 -24 -75 5 -21 3 -25 -15 -25
-20 0 -21 5 -21 90 0 83 2 90 20 90 16 0 19 -5 14 -30z m148 -5 c-9 -19 -22
-35 -29 -35 -16 0 -16 -1 -2 39 7 19 18 31 29 31 16 0 17 -2 2 -35z m-1012
-34 c5 -11 10 -28 10 -38 0 -16 -6 -18 -41 -15 -32 3 -40 1 -37 -9 3 -8 18
-14 34 -14 38 0 45 -17 11 -29 -60 -21 -108 45 -73 99 21 32 80 35 96 6z m145
-4 c19 -28 19 -57 -1 -86 -13 -18 -23 -22 -45 -17 -27 5 -29 3 -29 -24 0 -20
-5 -30 -15 -30 -12 0 -15 17 -15 89 l0 88 45 1 c35 1 48 -3 60 -21z m139 1
c22 -31 20 -64 -4 -88 -26 -26 -58 -25 -87 2 -44 41 -18 108 42 108 24 0 39
-7 49 -22z m66 10 c0 -9 3 -9 12 0 15 15 48 16 48 2 0 -6 -11 -15 -24 -20 -28
-10 -39 -38 -30 -74 5 -22 3 -26 -15 -26 -19 0 -21 6 -21 65 0 51 3 65 15 65
8 0 15 -5 15 -12z m202 0 c-5 -7 -12 -24 -15 -38 -4 -22 -4 -21 -6 7 -1 26 6
38 28 42 2 1 -1 -5 -7 -11z m112 -4 c9 -8 16 -25 16 -37 0 -20 -4 -22 -47 -18
-44 3 -46 2 -33 -14 9 -11 23 -15 42 -11 33 7 46 -9 19 -23 -45 -25 -101 4
-101 52 0 56 66 89 104 51z m137 0 c10 -13 10 -17 -1 -24 -9 -5 -19 -5 -27 2
-20 16 -43 1 -43 -27 0 -29 24 -43 45 -25 23 19 39 1 19 -21 -36 -40 -94 -11
-94 47 0 18 7 40 16 48 20 21 68 21 85 0z m-861 -194 c-20 -13 -33 -13 -25 0
3 6 14 10 23 10 15 0 15 -2 2 -10z m-150 -52 l12 -33 14 33 c21 49 39 41 39
-18 0 -33 -4 -50 -12 -50 -9 0 -11 10 -6 30 7 36 -4 40 -17 5 -12 -33 -26 -32
-38 3 l-10 27 -1 -32 c-2 -54 -21 -37 -21 17 0 59 21 69 40 18z m170 22 c0 -5
-11 -10 -25 -10 -14 0 -25 -4 -25 -10 0 -5 11 -10 25 -10 14 0 25 -4 25 -10 0
-5 -11 -10 -25 -10 -14 0 -25 -4 -25 -10 0 -5 11 -10 25 -10 14 0 25 -4 25
-10 0 -5 -16 -10 -35 -10 l-35 0 0 50 0 50 35 0 c19 0 35 -4 35 -10z m98 -2
c7 -7 12 -24 12 -38 0 -34 -17 -50 -52 -50 -27 0 -28 2 -28 50 0 48 1 50 28
50 15 0 33 -5 40 -12z m62 -38 c0 -27 -4 -50 -10 -50 -5 0 -10 23 -10 50 0 28
5 50 10 50 6 0 10 -22 10 -50z m98 0 c17 -41 18 -50 6 -50 -7 0 -14 5 -14 10
0 6 -9 10 -20 10 -11 0 -20 -4 -20 -10 0 -5 -7 -10 -14 -10 -12 0 -11 9 6 50
11 28 24 50 28 50 4 0 17 -22 28 -50z"/>
<path d="M900 1134 c0 -22 3 -24 23 -19 46 15 48 45 1 45 -19 0 -24 -5 -24
-26z"/>
<path d="M1063 1113 c-22 -8 -14 -23 12 -23 14 0 25 4 25 9 0 11 -21 19 -37
14z"/>
<path d="M1197 1103 c-13 -12 -7 -54 9 -60 23 -8 47 20 39 46 -6 20 -34 28
-48 14z"/>
<path d="M1335 1104 c-18 -19 -19 -36 -3 -52 29 -29 66 -2 53 38 -8 25 -32 32
-50 14z"/>
<path d="M1723 1105 c-17 -13 -16 -14 15 -15 33 0 43 13 18 23 -8 3 -22 -1
-33 -8z"/>
<path d="M1130 860 c0 -25 4 -31 18 -28 11 2 17 12 17 28 0 16 -6 26 -17 28
-14 3 -18 -3 -18 -28z"/>
<path d="M1300 860 c0 -5 5 -10 10 -10 6 0 10 5 10 10 0 6 -4 10 -10 10 -5 0
-10 -4 -10 -10z"/>
<path d="M627 922 c-11 -12 -17 -36 -17 -65 0 -58 27 -82 78 -68 17 5 34 6 36
2 6 -9 67 -2 82 10 15 12 12 103 -5 123 -31 37 -100 7 -102 -45 -1 -22 -1 -22
-11 6 -12 33 -27 55 -38 55 -4 0 -14 -8 -23 -18z m33 -52 c0 -33 3 -40 20 -40
11 0 20 -4 20 -10 0 -5 -13 -10 -30 -10 -29 0 -30 1 -30 50 0 28 5 50 10 50 6
0 10 -18 10 -40z m140 30 c0 -5 -11 -10 -25 -10 -14 0 -25 -4 -25 -10 0 -5 9
-10 20 -10 11 0 20 -4 20 -10 0 -5 -9 -10 -20 -10 -11 0 -20 -4 -20 -10 0 -5
11 -10 25 -10 14 0 25 -4 25 -10 0 -5 -16 -10 -35 -10 l-35 0 0 50 0 50 35 0
c19 0 35 -4 35 -10z"/>
<path d="M1417 922 c-20 -22 -23 -102 -5 -120 15 -15 84 -16 94 -1 4 8 9 8 17
0 15 -15 84 -14 94 2 4 6 8 34 9 60 0 41 -3 51 -23 64 -20 14 -30 14 -62 3
-28 -9 -43 -9 -59 -1 -29 16 -46 14 -65 -7z m77 -28 c33 -33 11 -84 -37 -84
l-32 0 3 50 c4 45 6 50 27 50 13 0 31 -7 39 -16z m116 6 c0 -5 -11 -10 -25
-10 -14 0 -25 -4 -25 -10 0 -5 9 -10 20 -10 11 0 20 -4 20 -10 0 -5 -9 -10
-20 -10 -11 0 -20 -4 -20 -10 0 -5 11 -10 25 -10 14 0 25 -4 25 -10 0 -5 -16
-10 -35 -10 l-35 0 0 50 0 50 35 0 c19 0 35 -4 35 -10z"/>
<path d="M1448 860 c-4 -27 -2 -31 16 -28 26 4 30 51 5 56 -12 2 -18 -6 -21
-28z"/>
<path d="M1676 925 c-17 -17 -22 -100 -8 -123 6 -8 35 -12 100 -10 88 2 93 3
99 26 3 13 0 29 -6 35 -6 6 -11 18 -11 26 0 8 -10 25 -21 37 -26 28 -50 19
-69 -26 -15 -36 -30 -39 -30 -7 0 13 -8 32 -19 41 -17 16 -20 16 -35 1z m24
-55 c0 -36 3 -40 25 -40 14 0 25 -4 25 -10 0 -5 -16 -10 -35 -10 l-35 0 0 50
c0 28 5 50 10 50 6 0 10 -18 10 -40z m131 -6 c20 -47 19 -68 -3 -46 -16 16
-45 15 -51 0 -2 -7 -7 -10 -11 -7 -8 7 26 99 37 99 4 0 17 -21 28 -46z"/>
<path d="M1796 865 c-3 -8 -1 -15 4 -15 6 0 10 7 10 15 0 8 -2 15 -4 15 -2 0
-6 -7 -10 -15z"/>
<path d="M1901 927 c-14 -14 -15 -47 -1 -47 6 0 10 -15 10 -33 0 -41 38 -69
65 -47 10 9 19 9 28 2 7 -6 71 -10 165 -9 157 2 179 8 165 44 -3 8 2 13 14 13
27 0 48 46 31 69 -7 9 -14 18 -15 20 -1 2 -9 -2 -18 -9 -12 -10 -18 -10 -29
-1 -11 9 -19 9 -35 -1 -16 -10 -23 -10 -33 0 -7 7 -16 8 -23 2 -7 -6 -23 -5
-43 2 -24 10 -36 9 -56 -2 -17 -9 -29 -10 -38 -3 -18 14 -173 14 -187 0z m89
-27 c0 -5 -7 -10 -15 -10 -11 0 -15 -11 -15 -40 0 -22 -4 -40 -10 -40 -5 0
-10 18 -10 40 0 29 -4 40 -15 40 -8 0 -15 5 -15 10 0 6 18 10 40 10 22 0 40
-4 40 -10z m100 0 c0 -5 -13 -10 -30 -10 -16 0 -30 -4 -30 -10 0 -5 11 -10 25
-10 14 0 25 -4 25 -10 0 -5 -11 -10 -25 -10 -14 0 -25 -4 -25 -10 0 -5 14 -10
30 -10 17 0 30 -4 30 -10 0 -5 -17 -10 -37 -10 l-38 0 0 50 0 50 38 0 c20 0
37 -4 37 -10z m99 -4 c8 -10 9 -16 1 -21 -5 -3 -10 -1 -10 5 0 6 -10 10 -22 8
-17 -2 -23 -10 -23 -28 0 -18 6 -26 23 -28 12 -2 22 2 22 8 0 6 5 8 10 5 16
-10 -8 -35 -34 -35 -29 0 -46 18 -46 50 0 14 5 31 12 38 16 16 53 15 67 -2z
m58 -6 c-4 -16 0 -20 19 -20 17 0 24 6 24 20 0 11 5 20 10 20 6 0 10 -22 10
-50 0 -36 -4 -50 -14 -50 -9 0 -12 7 -9 20 4 16 0 20 -20 20 -20 0 -24 -4 -20
-20 3 -13 0 -20 -8 -20 -10 0 -14 14 -14 50 0 36 4 50 14 50 8 0 11 -7 8 -20z
m113 0 c-6 -11 -13 -20 -15 -20 -3 0 -5 9 -5 20 0 11 7 20 15 20 13 0 14 -4 5
-20z"/>
</g>
</svg>
